<?xml version="1.0" standalone="no"?>
<!DOCTYPE svg PUBLIC "-//W3C//DTD SVG 20010904//EN"
 "http://www.w3.org/TR/2001/REC-SVG-20010904/DTD/svg10.dtd">
<svg version="1.0" xmlns="http://www.w3.org/2000/svg"
 width="225.000000pt" height="225.000000pt" viewBox="0 0 225.000000 225.000000"
 preserveAspectRatio="xMidYMid meet">

<g transform="translate(0.000000,225.000000) scale(0.100000,-0.100000)"
fill="#000000" stroke="none">
<path d="M0 1125 l0 -1125 1125 0 1125 0 0 1125 0 1125 -1125 0 -1125 0 0
-1125z m1132 933 c-4 -18 -2 -20 16 -16 18 5 22 2 22 -17 0 -18 -4 -22 -20
-18 -21 6 -29 -20 -10 -32 6 -4 8 -26 4 -56 -5 -34 -3 -49 5 -49 6 0 10 6 9
13 -2 7 7 12 20 11 13 0 22 5 22 14 0 10 7 12 25 8 14 -4 25 -2 25 4 0 5 7 10
15 10 8 0 15 -5 15 -11 0 -8 5 -7 16 2 14 11 18 11 28 -2 6 -8 20 -13 30 -11
15 3 18 0 13 -17 -3 -14 0 -21 8 -21 20 0 28 -19 16 -34 -9 -10 -8 -15 5 -20
15 -6 15 -8 -1 -26 -10 -12 -13 -20 -7 -20 7 0 12 -7 12 -15 0 -8 -5 -15 -11
-15 -6 0 -8 -9 -4 -20 4 -13 1 -22 -10 -26 -10 -4 -13 -13 -10 -25 5 -14 1
-19 -14 -19 -17 0 -21 -6 -21 -30 0 -16 -4 -30 -10 -30 -5 0 -10 -7 -10 -15 0
-19 2 -20 -66 12 -80 36 -178 36 -259 -1 -67 -31 -65 -30 -65 -11 0 8 -4 15
-10 15 -5 0 -10 14 -10 30 0 23 -4 30 -20 30 -23 0 -26 10 -8 28 9 9 8 12 -4
12 -23 0 -32 18 -18 35 10 12 9 15 -4 15 -19 0 -22 26 -3 34 10 5 10 7 0 12
-7 3 -13 12 -13 19 0 7 6 15 13 18 9 3 9 8 -2 21 -13 15 -12 18 6 22 15 4 19
11 15 26 -4 19 -2 20 22 14 17 -4 25 -3 22 3 -10 15 13 24 28 12 10 -9 15 -8
20 5 5 14 9 14 23 3 9 -8 24 -13 35 -11 11 2 18 -3 18 -12 0 -10 8 -15 23 -13
13 1 21 -3 20 -10 -2 -7 1 -13 6 -13 15 0 18 32 7 58 -7 17 -6 29 2 43 18 28
15 42 -8 36 -15 -4 -20 0 -20 14 0 12 7 19 20 19 13 0 20 7 20 20 0 13 7 20
19 20 15 0 18 -5 13 -22z m-301 -457 c-6 -11 -23 -28 -38 -40 l-28 -20 28 -1
c15 0 27 -4 27 -10 0 -5 -15 -10 -33 -10 -18 0 -38 -5 -45 -12 -9 -9 -12 -9
-12 -1 0 7 4 14 10 18 6 4 6 15 0 31 -12 31 -13 44 -1 44 5 0 11 -10 15 -22 6
-22 7 -22 32 10 28 36 62 46 45 13z m614 -11 c16 -16 25 -33 22 -37 -8 -7 -67
45 -67 59 0 16 17 8 45 -22z m-223 -10 c64 -24 85 -37 76 -46 -4 -4 -31 4 -60
16 -72 32 -174 33 -242 2 -58 -26 -76 -28 -54 -6 25 25 117 53 175 54 29 0 76
-9 105 -20z m274 -19 c-4 -27 -2 -42 8 -50 11 -9 15 -6 20 14 4 14 11 25 16
25 13 0 13 -16 -1 -42 -6 -11 -8 -31 -4 -46 l6 -25 22 34 c17 27 22 30 25 16
2 -10 -4 -29 -13 -43 -10 -15 -13 -33 -9 -46 6 -21 7 -21 26 5 23 32 55 38 38
8 -5 -11 -17 -27 -26 -36 -11 -10 -14 -24 -9 -42 l6 -26 15 21 c8 12 24 27 35
32 31 17 24 -17 -11 -52 -21 -21 -29 -36 -25 -49 6 -18 8 -18 37 6 37 31 64
34 48 5 -6 -11 -24 -30 -40 -42 -18 -13 -30 -31 -30 -45 l0 -22 36 24 c57 39
88 30 42 -12 -13 -11 -33 -26 -45 -32 -13 -6 -23 -21 -23 -32 l0 -20 28 20
c16 11 41 23 57 27 29 7 30 7 14 -17 -9 -13 -35 -33 -58 -44 -30 -15 -41 -26
-41 -43 l0 -23 29 20 c16 12 43 24 60 27 50 10 29 -21 -35 -52 -54 -26 -77
-63 -31 -50 46 14 97 18 97 8 0 -11 -60 -42 -83 -42 -26 0 -47 -11 -47 -25 0
-11 8 -11 32 -4 47 13 91 12 86 -3 -6 -17 -77 -40 -105 -35 -14 3 -23 -2 -26
-13 -4 -16 2 -17 53 -13 39 4 60 2 65 -6 11 -19 -2 -25 -70 -29 -47 -3 -65 -8
-65 -18 0 -10 14 -14 48 -14 27 0 57 -6 68 -14 18 -14 18 -15 -9 -21 -15 -4
-50 -5 -76 -1 -39 5 -50 3 -55 -9 -4 -12 2 -15 28 -15 38 0 96 -18 96 -30 0
-22 -79 -21 -122 2 -10 5 -18 7 -18 4 0 -2 -3 -11 -6 -19 -4 -10 5 -16 31 -21
45 -9 85 -26 85 -38 0 -16 -74 -12 -111 7 -22 12 -26 11 -36 -5 -10 -15 -8
-19 18 -24 40 -8 99 -36 99 -47 0 -16 -65 -9 -105 11 -38 19 -41 19 -53 3 -11
-15 -8 -18 25 -28 49 -15 83 -33 83 -45 0 -17 -59 -11 -101 11 -32 16 -43 18
-55 8 -12 -10 -8 -15 28 -31 76 -34 106 -76 46 -64 -18 4 -50 18 -71 32 -25
16 -43 22 -52 16 -12 -6 -3 -16 37 -42 55 -37 71 -60 42 -60 -23 0 -100 46
-107 64 -4 11 -14 10 -54 -9 -26 -12 -59 -27 -73 -33 -25 -11 -25 -11 8 -11
17 -1 32 -5 32 -11 0 -5 -10 -10 -22 -10 -42 0 -68 12 -68 30 0 14 17 24 65
40 36 12 67 25 70 30 3 5 -3 23 -14 42 -26 45 -39 112 -20 106 19 -6 59 -78
59 -106 0 -20 3 -21 20 -12 19 10 19 12 -10 64 -30 52 -38 86 -22 86 13 0 37
-30 59 -73 17 -34 21 -37 32 -23 9 10 9 16 3 16 -6 0 -23 20 -37 43 -25 44
-32 77 -17 77 14 0 50 -43 65 -78 12 -29 15 -31 27 -17 11 14 9 20 -17 48 -28
29 -53 68 -53 81 0 3 6 6 14 6 16 0 76 -65 76 -82 0 -7 5 -6 15 2 13 11 10 18
-25 56 -37 40 -51 74 -32 74 11 0 46 -33 66 -62 13 -18 18 -20 25 -9 6 9 -4
26 -35 56 -24 23 -44 47 -44 53 0 24 29 11 64 -28 29 -32 38 -37 43 -25 4 11
-6 26 -31 47 -20 16 -41 38 -46 49 -17 31 14 24 55 -12 20 -18 39 -29 42 -25
4 4 -14 25 -40 47 -26 22 -47 47 -47 54 0 20 29 8 68 -28 17 -17 32 -28 32
-25 0 4 3 13 6 22 4 9 1 16 -6 16 -20 0 -80 49 -80 66 0 21 12 18 58 -16 24
-17 42 -25 42 -18 -1 7 -19 25 -41 41 -39 27 -57 52 -45 64 6 7 76 -38 76 -49
0 -5 5 -8 11 -8 21 0 3 29 -40 61 -25 19 -46 40 -49 47 -7 21 29 13 65 -14 30
-23 33 -24 33 -6 0 12 -11 24 -29 32 -16 6 -39 22 -52 36 -21 22 -21 24 -3 24
10 0 34 -9 52 -20 31 -19 32 -19 32 -1 0 12 -11 23 -27 29 -38 13 -80 48 -70
58 5 5 26 -1 48 -13 35 -19 39 -19 39 -5 0 11 -19 26 -50 40 -50 23 -65 42
-32 42 9 0 30 -7 45 -15 27 -14 28 -13 25 6 -2 15 -17 27 -47 38 -48 18 -71
48 -30 39 13 -3 32 -9 43 -13 14 -6 17 -4 14 11 -2 13 -15 21 -41 25 -21 3
-43 12 -50 19 -10 9 -3 11 31 8 23 -2 42 -3 42 -2 0 20 -18 34 -44 34 -17 0
-38 4 -46 10 -12 8 -12 10 3 16 9 3 26 4 37 1 22 -6 23 -5 14 17 -4 11 -19 16
-46 16 -23 0 -37 4 -33 10 3 6 17 10 30 10 18 0 23 4 19 15 -4 10 -20 15 -46
15 -23 0 -37 4 -33 10 3 6 17 10 31 10 14 0 27 7 29 15 3 8 7 22 10 30 9 30
17 14 11 -24z m-781 -41 c12 -23 22 -30 45 -30 16 0 32 -4 35 -10 6 -10 -12
-14 -52 -10 -12 0 -26 -7 -32 -17 -8 -17 -6 -18 26 -15 27 3 34 1 31 -9 -3 -8
-21 -15 -41 -17 -23 -2 -41 -10 -47 -21 -9 -17 -5 -18 38 -14 36 4 44 3 36 -7
-6 -6 -30 -14 -52 -17 -29 -4 -42 -11 -45 -25 -4 -15 -2 -18 11 -13 35 13 72
17 72 7 0 -11 -61 -42 -84 -42 -9 0 -16 -4 -16 -9 0 -5 -3 -17 -6 -26 -6 -16
-5 -16 24 -1 17 9 38 16 47 16 30 0 14 -20 -32 -43 -26 -12 -49 -30 -51 -39
-3 -15 1 -14 35 3 76 39 89 13 13 -29 -27 -15 -50 -33 -50 -39 0 -17 10 -16
34 2 22 17 56 20 56 6 0 -12 -48 -46 -75 -55 -12 -3 -21 -15 -21 -26 0 -24 9
-25 27 -4 7 8 25 22 41 30 25 13 28 13 28 0 0 -18 -47 -64 -72 -72 -10 -3 -18
-14 -18 -25 0 -19 4 -18 37 10 34 28 63 40 63 25 0 -17 -24 -45 -55 -64 -19
-12 -35 -28 -35 -37 0 -10 11 -6 35 16 35 30 65 40 65 22 0 -11 -67 -71 -80
-71 -6 0 -10 -10 -10 -22 0 -21 0 -21 28 4 36 34 72 53 72 38 0 -22 -21 -49
-54 -70 -22 -13 -33 -26 -30 -35 4 -11 15 -5 39 20 31 34 65 46 65 24 0 -12
-47 -61 -73 -75 -11 -6 -15 -16 -12 -27 6 -13 14 -9 44 24 21 21 43 39 49 39
24 0 11 -31 -28 -69 -27 -26 -38 -44 -34 -55 5 -12 13 -7 35 24 29 40 54 58
65 47 9 -9 -24 -64 -51 -85 -26 -20 -32 -37 -17 -46 5 -3 23 15 40 39 29 42
62 60 62 34 0 -18 -39 -77 -61 -93 -16 -11 -17 -15 -6 -25 11 -9 20 -1 45 39
17 28 38 50 47 50 8 0 15 -2 15 -5 0 -17 -34 -83 -52 -102 -17 -18 -19 -26
-10 -35 6 -6 13 -10 14 -7 2 2 14 26 28 54 30 59 65 76 50 25 -5 -18 -19 -48
-30 -68 -19 -32 -20 -37 -6 -51 14 -13 16 -13 16 -1 0 24 48 120 60 120 18 0
11 -56 -14 -103 l-24 -45 46 -20 c26 -11 59 -22 73 -26 17 -4 26 -12 25 -23
-1 -22 -21 -31 -65 -32 -38 -1 -32 15 7 21 19 2 10 9 -41 31 l-65 28 -47 -35
c-43 -33 -85 -47 -85 -28 0 11 50 57 78 71 19 10 21 15 11 27 -10 13 -15 12
-33 -4 -41 -38 -116 -66 -116 -44 0 14 33 40 73 60 26 12 34 21 28 31 -7 11
-17 10 -53 -8 -24 -11 -59 -21 -78 -21 -32 0 -33 1 -16 19 10 11 40 25 67 32
45 12 48 14 33 30 -14 15 -18 15 -45 2 -40 -20 -109 -29 -109 -15 0 14 44 37
88 47 37 8 38 32 1 27 -136 -15 -135 -15 -117 3 9 10 39 23 67 29 38 9 48 14
42 25 -7 11 -18 11 -59 1 -28 -6 -61 -9 -73 -5 -19 6 -20 9 -6 22 9 9 38 18
65 21 37 3 49 8 45 18 -4 10 -19 12 -61 8 -62 -6 -99 8 -72 26 8 5 38 10 67
10 42 0 51 3 47 15 -4 11 -21 15 -58 15 -59 0 -106 23 -73 36 10 3 40 4 67 2
28 -3 50 -2 50 1 -1 17 -19 26 -59 29 -51 3 -84 18 -75 34 7 11 74 6 108 -7
14 -6 17 -4 14 6 -3 8 -18 18 -34 23 -53 15 -94 36 -94 46 0 15 45 12 86 -5
34 -14 35 -14 32 6 -2 14 -16 25 -41 34 -39 13 -77 41 -77 57 0 14 34 9 68
-12 40 -25 42 -25 42 -1 0 11 -9 23 -20 26 -11 4 -34 18 -50 32 -55 46 -28 60
34 18 45 -30 46 -30 46 -5 0 12 -9 24 -22 29 -13 5 -36 23 -52 40 -25 26 -27
31 -11 31 10 0 33 -11 50 -25 l33 -24 5 21 c5 17 -3 30 -33 56 -22 18 -40 38
-40 43 0 17 25 9 52 -16 33 -30 38 -31 38 -4 0 12 -13 37 -30 56 -49 55 -36
76 15 23 29 -30 30 -30 37 -9 6 15 2 29 -17 51 -36 43 -34 70 3 35 33 -31 38
-33 46 -11 3 9 -3 27 -14 41 -31 39 -25 65 6 29 21 -23 28 -26 35 -15 5 8 6
21 3 29 -11 25 -17 60 -10 60 3 0 12 -13 21 -30z m580 -55 c65 -32 97 -70 119
-144 43 -148 -6 -296 -119 -357 -31 -17 -37 -17 -45 -4 -7 11 -5 18 6 25 85
53 99 88 97 243 -2 102 -5 131 -23 167 -23 47 -67 75 -117 75 -38 0 -91 -34
-99 -64 -5 -22 -8 -23 -35 -14 -18 6 -29 17 -29 29 0 11 -11 24 -25 31 -61 28
-1 48 127 44 71 -3 98 -9 143 -31z m-230 -91 c124 -46 159 -53 205 -43 24 5
45 7 48 5 2 -3 -18 -30 -46 -61 -29 -31 -66 -76 -83 -100 -25 -35 -35 -42 -46
-34 -22 19 -16 32 37 84 28 27 50 53 50 56 0 4 -16 5 -35 2 -46 -7 -120 12
-178 48 -58 35 -117 39 -147 9 -26 -26 -25 -47 2 -46 27 1 37 -31 14 -40 -37
-14 -60 42 -35 88 12 23 83 58 119 58 14 0 57 -12 95 -26z m23 -100 c18 -5 22
-13 22 -50 0 -48 -5 -52 -38 -28 -15 11 -22 25 -22 50 0 36 2 37 38 28z m-75
-34 c5 -21 21 -40 56 -65 60 -43 87 -78 134 -172 38 -74 51 -90 62 -73 16 26
25 4 25 -59 0 -59 -3 -69 -19 -74 -15 -4 -20 4 -30 46 -15 66 -59 134 -121
186 -27 23 -66 68 -87 101 -21 33 -41 60 -45 60 -5 0 -8 -31 -8 -68 0 -44 -5
-75 -15 -88 -13 -17 -14 -8 -15 87 0 82 -3 109 -15 119 -25 21 -17 30 29 30
40 0 44 -2 49 -30z m297 -20 c12 -8 12 -11 -3 -28 -13 -14 -17 -37 -17 -89 0
-51 -4 -74 -15 -83 -13 -11 -15 -2 -15 73 0 47 -4 89 -10 92 -16 10 -12 33 8
38 28 8 36 7 52 -3z m-280 -200 l0 -50 -70 -51 c-65 -47 -98 -84 -87 -95 2 -3
25 0 51 7 72 18 106 6 183 -65 95 -88 126 -101 175 -75 20 11 20 11 -3 23 -28
13 -31 44 -7 59 12 8 21 7 32 -2 22 -18 20 -54 -3 -82 -31 -38 -99 -32 -186
16 -166 91 -176 95 -231 95 -30 0 -54 2 -54 5 0 14 187 265 197 265 2 0 3 -22
3 -50z m80 -30 c0 -9 13 -20 32 -25 46 -14 48 -35 4 -35 l-36 0 0 -66 0 -65
-30 21 -30 21 0 112 0 111 30 -29 c17 -16 30 -36 30 -45z m-130 -110 c0 -11
-7 -20 -15 -20 -27 0 -18 30 13 39 1 1 2 -8 2 -19z m0 -135 c0 -6 9 -20 20
-30 30 -27 19 -40 -34 -41 -56 -2 -70 16 -37 47 11 11 21 26 21 34 0 9 6 12
15 9 8 -4 15 -12 15 -19z m108 -51 c12 -8 22 -22 22 -30 0 -8 9 -32 20 -53 21
-42 13 -55 -25 -40 -11 4 -33 8 -49 8 -26 1 -28 4 -22 29 4 15 9 44 13 65 6
42 10 43 41 21z m112 -229 c10 -12 9 -20 -4 -41 -20 -30 -40 -27 -41 7 0 20
-5 24 -37 27 -33 3 -37 1 -40 -24 -4 -36 -25 -42 -39 -10 -21 46 -7 56 74 56
54 0 78 -4 87 -15z m-35 -85 c3 -11 4 -24 1 -28 -3 -5 8 -19 24 -31 34 -24 37
-36 14 -45 -10 -4 -24 5 -41 24 -32 39 -61 38 -94 -1 -20 -25 -30 -30 -43 -22
-14 8 -13 12 14 38 16 16 30 38 30 50 0 30 8 35 51 35 29 0 39 -5 44 -20z"/>
<path d="M1107 1963 c-13 -12 -7 -33 8 -33 8 0 15 9 15 20 0 20 -11 26 -23 13z"/>
<path d="M934 1892 c-52 -8 -81 -79 -62 -149 8 -31 28 -46 28 -23 0 6 12 16
28 23 23 10 27 18 27 52 0 49 23 54 45 10 12 -26 20 -31 51 -30 27 0 35 3 28
12 -6 6 -7 22 -4 36 6 22 2 28 -27 43 -39 20 -85 31 -114 26z"/>
<path d="M1240 1890 c-14 -4 -40 -14 -57 -24 -29 -15 -32 -20 -26 -49 7 -38 3
-33 33 -40 21 -5 27 -1 40 26 8 18 23 34 34 35 16 3 18 -2 15 -42 -4 -38 -1
-46 13 -46 9 0 26 -12 37 -26 l20 -25 10 38 c6 21 11 48 11 61 0 38 -28 81
-58 88 -15 3 -31 7 -37 8 -5 2 -21 0 -35 -4z"/>
<path d="M1106 1847 c-7 -38 -2 -57 15 -57 11 0 11 47 0 75 -7 16 -9 13 -15
-18z"/>
<path d="M1028 1723 c-21 -5 -23 -14 -6 -31 24 -24 88 -4 88 29 0 9 -50 11
-82 2z"/>
<path d="M1130 1718 c0 -36 56 -52 80 -23 17 20 10 26 -39 32 -31 4 -41 2 -41
-9z"/>
<path d="M943 1693 c-38 -19 -43 -38 -11 -46 22 -6 58 8 58 23 0 4 3 15 6 24
8 20 -11 20 -53 -1z"/>
<path d="M1240 1685 c0 -28 30 -46 62 -37 33 8 29 21 -11 42 -51 25 -51 25
-51 -5z"/>
<path d="M1094 1669 c-10 -17 23 -46 37 -32 7 7 9 19 6 27 -7 18 -33 21 -43 5z"/>
<path d="M1003 1654 c-8 -21 19 -38 30 -18 9 16 1 34 -14 34 -5 0 -12 -7 -16
-16z"/>
<path d="M1202 1661 c-17 -10 -4 -41 14 -34 15 6 19 29 6 37 -4 2 -14 1 -20
-3z"/>
</g>
</svg>
